<svg width="1409" height="726" viewBox="0 0 1409 726" version="1.1" xmlns="http://www.w3.org/2000/svg" xmlns:xlink="http://www.w3.org/1999/xlink">
    <title>Path 5 + Path 3 + Path 4 + Path 4 Mask</title>
    <desc>Created using Figma</desc>
    <g id="Canvas" transform="translate(-6818 1461)">
        <g id="Path 5 + Path 3 + Path 4 + Path 4 Mask">
            <g id="Combined Shape">
                <use xlink:href="#path0_fill" transform="translate(6818 -1461)" fill="url(#paint0_linear)"/>
            </g>
            <mask id="mask0_outline" mask-type="alpha">
                <g id="Combined Shape">
                    <use xlink:href="#path1_fill" transform="translate(6818 -1461)" fill="#FFFFFF"/>
                </g>
            </mask>
            <g id="Path 5" opacity="0.0792572" mask="url(#mask0_outline)">
                <use xlink:href="#path2_fill" transform="matrix(-0.992546 0.121869 -0.121869 -0.992546 8346.6 -678.312)" fill="url(#paint2_linear)"/>
                <use xlink:href="#path3_stroke" transform="matrix(-0.992546 0.121869 -0.121869 -0.992546 8346.6 -678.312)" fill="#979797"/>
            </g>
            <g id="Path 3" opacity="0.0957314" mask="url(#mask0_outline)">
                <use xlink:href="#path4_fill" transform="matrix(-1 -1.22465e-16 1.22465e-16 -1 8510.66 -875.442)" fill="url(#paint4_linear)"/>
            </g>
            <g id="Path 4" opacity="0.0502151" mask="url(#mask0_outline)">
                <use xlink:href="#path5_fill" transform="matrix(0.777146 0.62932 -0.62932 0.777146 7085.48 -1856.65)" fill="url(#paint5_linear)"/>
            </g>
            <g id="Path 4" opacity="0.0904099" mask="url(#mask0_outline)">
                <use xlink:href="#path6_fill" transform="matrix(-0.866025 0.5 -0.5 -0.866025 8382.82 -424.16)" fill="url(#paint6_linear)"/>
                <use xlink:href="#path7_stroke" transform="matrix(-0.866025 0.5 -0.5 -0.866025 8382.82 -424.16)" fill="#979797"/>
            </g>
        </g>
    </g>
    <defs>
        <linearGradient id="paint0_linear" x1="0" y1="0" x2="1" y2="0" gradientUnits="userSpaceOnUse" gradientTransform="matrix(-1232.49 -742.496 1474.11 -620.796 1326.8 711.89)">
            <stop offset="0" stop-color="#68E0CF"/>
            <stop offset="1" stop-color="#205AFF"/>
        </linearGradient>
        <linearGradient id="paint2_linear" x1="0" y1="0" x2="1" y2="0" gradientUnits="userSpaceOnUse" gradientTransform="matrix(0 932.251 -1340.11 0 668.917 7.4138e-07)">
            <stop offset="0" stop-color="#FFFFFF" stop-opacity="0.01"/>
            <stop offset="1" stop-color="#FFFFFF"/>
        </linearGradient>
        <linearGradient id="paint4_linear" x1="0" y1="0" x2="1" y2="0" gradientUnits="userSpaceOnUse" gradientTransform="matrix(0 1097.9 -1892.77 0 946.385 0)">
            <stop offset="0" stop-color="#FFFFFF" stop-opacity="0.01"/>
            <stop offset="1" stop-color="#FFFFFF"/>
        </linearGradient>
        <linearGradient id="paint5_linear" x1="0" y1="0" x2="1" y2="0" gradientUnits="userSpaceOnUse" gradientTransform="matrix(0 847 -961.304 0 480.652 0)">
            <stop offset="0" stop-color="#FFFFFF" stop-opacity="0.01"/>
            <stop offset="1" stop-color="#FFFFFF"/>
        </linearGradient>
        <linearGradient id="paint6_linear" x1="0" y1="0" x2="1" y2="0" gradientUnits="userSpaceOnUse" gradientTransform="matrix(0 609.498 -691.75 0 345.875 0)">
            <stop offset="0" stop-color="#FFFFFF" stop-opacity="0.01"/>
            <stop offset="1" stop-color="#FFFFFF"/>
        </linearGradient>
        <path id="path0_fill" fill-rule="evenodd" d="M 1440 0L 0 0L 0 725.314C 78.4175 708.094 193.864 691.676 302.875 709.798C 463.549 736.509 530.877 722.12 607.17 705.815C 620.872 702.887 634.863 699.897 649.735 697.072C 672.011 692.841 696.718 684.503 724.88 674.999C 820.221 642.826 955.163 597.288 1169.41 652.482C 1297.05 685.366 1383.67 640.344 1440 582.122L 1440 0Z"/>
        <path id="path1_fill" fill-rule="evenodd" d="M 1440 0L 0 0L 0 725.314C 78.4175 708.094 193.864 691.676 302.875 709.798C 463.549 736.509 530.877 722.12 607.17 705.815C 620.872 702.887 634.863 699.897 649.735 697.072C 672.011 692.841 696.718 684.503 724.88 674.999C 820.221 642.826 955.163 597.288 1169.41 652.482C 1297.05 685.366 1383.67 640.344 1440 582.122L 1440 0Z"/>
        <path id="path2_fill" fill-rule="evenodd" d="M 1.17243 388.129C 1.17243 388.129 34.7274 171.194 219.077 137.371C 403.426 103.547 713.321 104.098 808.339 78.5547C 903.357 53.0118 1115.17 -35.219 1177.19 15.3951C 1239.22 66.0093 1334.91 134.803 1309.03 321.307C 1283.15 507.812 1294.45 553.355 1309.03 597.608C 1323.61 641.861 1375.81 684.359 1294.45 750.414C 1213.08 816.469 1015.85 790.592 861.063 857.702C 706.272 924.812 397.336 978.295 360.047 872.056C 322.758 765.816 328.071 784.882 325.761 671.555C 323.451 558.229 231.024 507.79 214.39 505.852C 197.756 503.914 112.258 503.474 50.118 521.08C -12.0223 538.685 1.17243 388.129 1.17243 388.129Z"/>
        <path id="path3_stroke" d="M 1.17243 388.129L 0.678302 388.053L 0.675777 388.069L 0.674335 388.085L 1.17243 388.129ZM 1.17243 388.129C 1.66655 388.205 1.66665 388.205 1.66687 388.203C 1.66712 388.202 1.66748 388.2 1.66797 388.196C 1.66896 388.19 1.67047 388.18 1.6725 388.167C 1.67657 388.142 1.68275 388.103 1.69108 388.051C 1.70773 387.948 1.73303 387.793 1.7674 387.589C 1.83615 387.179 1.94122 386.57 2.08618 385.774C 2.37612 384.182 2.82563 381.84 3.46333 378.846C 4.73874 372.858 6.76678 364.264 9.77621 353.843C 15.7955 333.001 25.7387 304.862 41.4339 275.671C 72.8258 217.284 127.197 154.737 219.167 137.863L 218.986 136.879C 126.607 153.828 72.0261 216.66 40.5532 275.197C 24.816 304.467 14.8487 332.675 8.81548 353.566C 5.79867 364.012 3.76501 372.629 2.48527 378.637C 1.84539 381.641 1.39397 383.993 1.10236 385.595C 0.956551 386.396 0.850698 387.009 0.781216 387.423C 0.746475 387.63 0.720827 387.787 0.703823 387.892C 0.695322 387.945 0.688982 387.985 0.684747 388.012C 0.682629 388.025 0.681038 388.035 0.679966 388.042C 0.67943 388.045 0.679014 388.048 0.678747 388.05C 0.67846 388.052 0.678302 388.053 1.17243 388.129ZM 219.167 137.863C 311.307 120.957 434.836 112.64 547.239 105.356C 603.434 101.715 656.847 98.3318 702.15 94.2622C 747.443 90.1935 784.667 85.4359 808.469 79.0376L 808.209 78.0718C 784.502 84.4449 747.357 89.1972 702.06 93.2662C 656.773 97.3344 603.375 100.717 547.175 104.359C 434.789 111.641 311.196 119.961 218.986 136.879L 219.167 137.863ZM 808.469 79.0376C 832.239 72.6476 863.31 62.3381 897.49 51.2682C 931.678 40.1955 968.988 28.3577 1005.26 18.8998C 1041.54 9.44098 1076.77 2.36885 1106.78 0.818316C 1136.82 -0.733474 1161.52 3.25279 1176.88 15.7825L 1177.51 15.0077C 1161.85 2.23036 1136.82 -1.73483 1106.73 -0.180353C 1076.61 1.37538 1041.32 8.46723 1005.01 17.9322C 968.705 27.3981 931.371 39.2439 897.182 50.3168C 862.985 61.3924 831.948 71.6904 808.209 78.0718L 808.469 79.0376ZM 1176.88 15.7825C 1207.91 41.1042 1247.26 70.9015 1275.65 117.652C 1304.03 164.381 1321.46 228.088 1308.53 321.239L 1309.53 321.376C 1322.48 228.023 1305.01 164.08 1276.51 117.133C 1248.01 70.2067 1208.51 40.3001 1177.51 15.0077L 1176.88 15.7825ZM 1308.53 321.239C 1295.59 414.501 1291.94 472.547 1293.36 512.82C 1294.77 553.111 1301.25 575.609 1308.56 597.765L 1309.5 597.452C 1302.22 575.355 1295.77 552.954 1294.35 512.785C 1292.94 472.597 1296.58 414.618 1309.53 321.376L 1308.53 321.239ZM 1308.56 597.765C 1312.22 608.874 1318.24 619.875 1323.9 631.09C 1329.57 642.326 1334.89 653.798 1337.23 665.93C 1339.56 678.046 1338.92 690.828 1332.65 704.688C 1326.37 718.559 1314.44 733.542 1294.13 750.026L 1294.76 750.802C 1315.14 734.258 1327.2 719.158 1333.56 705.1C 1339.93 691.031 1340.58 678.037 1338.21 665.741C 1335.84 653.46 1330.47 641.881 1324.79 630.639C 1319.11 619.376 1313.14 608.469 1309.5 597.452L 1308.56 597.765ZM 1294.13 750.026C 1273.87 766.471 1246.38 777.217 1214.05 785.122C 1181.73 793.026 1144.64 798.078 1105.23 803.167C 1026.42 813.34 938.337 823.655 860.864 857.243L 861.261 858.161C 938.579 824.639 1026.51 814.337 1105.35 804.158C 1144.76 799.071 1181.91 794.012 1214.29 786.093C 1246.67 778.174 1274.34 767.384 1294.76 750.802L 1294.13 750.026ZM 860.864 857.243C 783.52 890.776 667.641 920.911 566.45 929.387C 515.853 933.624 468.963 932.443 432.412 923.584C 395.847 914.721 369.757 898.21 360.519 871.89L 359.575 872.221C 368.982 899.021 395.492 915.664 432.177 924.556C 468.876 933.451 515.887 934.625 566.534 930.383C 667.83 921.899 783.815 891.738 861.261 858.161L 860.864 857.243ZM 360.519 871.89C 341.866 818.745 333.893 797.007 330.281 774.384C 326.666 751.75 327.417 728.247 326.261 671.545L 325.261 671.565C 326.415 728.19 325.664 751.817 329.293 774.542C 332.924 797.277 340.939 819.126 359.575 872.221L 360.519 871.89ZM 326.261 671.545C 325.103 614.736 301.354 573.681 275.811 546.59C 263.041 533.047 249.821 522.991 238.746 516.198C 233.208 512.801 228.203 510.218 224.055 508.421C 219.918 506.63 216.601 505.606 214.448 505.355L 214.332 506.348C 216.338 506.582 219.547 507.559 223.658 509.339C 227.757 511.115 232.72 513.675 238.223 517.05C 249.228 523.801 262.378 533.802 275.083 547.276C 300.489 574.221 324.109 615.048 325.261 671.565L 326.261 671.545ZM 214.448 505.355C 206.087 504.381 180.52 503.789 149.289 505.638C 118.052 507.487 81.1021 511.782 49.9817 520.599L 50.2543 521.561C 81.2743 512.772 118.143 508.484 149.348 506.636C 180.559 504.788 206.058 505.384 214.332 506.348L 214.448 505.355ZM 49.9817 520.599C 42.3067 522.773 35.8371 522.342 30.3734 519.963C 24.9028 517.582 20.3895 513.226 16.6751 507.463C 9.23663 495.921 5.07088 478.846 2.83866 461.144C 0.608415 443.458 0.315769 425.215 0.581594 411.388C 0.714481 404.476 0.986864 398.67 1.22597 394.593C 1.34552 392.555 1.45675 390.949 1.53804 389.853C 1.57869 389.305 1.61185 388.884 1.63483 388.601C 1.64632 388.459 1.65527 388.352 1.66133 388.28C 1.66436 388.244 1.66666 388.217 1.66821 388.199C 1.66898 388.19 1.66957 388.184 1.66995 388.179C 1.67014 388.177 1.67029 388.175 1.67038 388.174C 1.67047 388.173 1.67052 388.173 1.17243 388.129C 0.674335 388.085 0.674276 388.086 0.674167 388.087C 0.674065 388.088 0.673906 388.09 0.673702 388.093C 0.673293 388.097 0.672689 388.104 0.671893 388.114C 0.670302 388.132 0.667948 388.16 0.664872 388.196C 0.658722 388.269 0.649688 388.377 0.638108 388.52C 0.614949 388.805 0.581606 389.228 0.540783 389.779C 0.459136 390.879 0.347564 392.491 0.227689 394.535C -0.0120554 398.622 -0.285042 404.441 -0.418221 411.369C -0.684529 425.221 -0.392095 443.517 1.84651 461.269C 4.08314 479.006 8.27002 496.268 15.8345 508.004C 19.6216 513.88 24.2724 518.398 29.9742 520.88C 35.6829 523.365 42.3942 523.788 50.2543 521.561L 49.9817 520.599Z"/>
        <path id="path4_fill" fill-rule="evenodd" d="M 13.8318 758.646C 13.8318 758.646 78.4978 841.189 197.782 851.631C 317.065 862.072 341.241 865.164 363.227 895.026C 385.214 924.887 384.369 930.072 417.68 933.126C 450.991 936.179 495.657 925.536 521.175 957.615C 546.693 989.693 577.435 1005.79 640.021 1010.21C 702.607 1014.63 738.772 1023.98 777.331 1041.41C 815.891 1058.84 886.177 1133.41 976.047 1077.38C 1065.92 1021.35 1067.68 1010.21 1089.67 1010.21C 1111.67 1010.21 1165.92 1014.38 1197.14 975.415C 1228.35 936.446 1292.48 933.126 1316.22 933.126C 1339.97 933.126 1403.92 931.906 1441.58 891.768C 1479.24 851.631 1546.24 863.811 1567.63 857.721C 1589.02 851.631 1691.9 873.322 1846.12 710.38C 2000.34 547.438 1728.85 455.107 1656.72 445.321C 1584.58 435.536 1459.41 382.879 1441.58 270.616C 1423.74 158.352 1307.8 -31.0441 1107.25 4.33717C 906.696 39.7184 517.68 133.598 353.033 324.435C 188.385 515.271 196.029 611.968 131.268 633.525C 66.5075 655.082 12.9257 658.398 3.15816 698.737C -6.60933 739.076 13.8318 758.646 13.8318 758.646Z"/>
        <path id="path5_fill" fill-rule="evenodd" d="M 27.5098 448.322C 27.5098 448.322 91.596 506.36 94.2676 598.535C 96.9393 690.71 135.103 754.278 255.562 792.615C 376.021 830.953 679.972 875.272 862.329 823.393C 1044.69 771.514 923.277 690.722 902.281 631.648C 881.286 572.574 786.418 325.429 881.286 246.239C 976.154 167.049 938.627 -14.7355 797.793 0.954717C 656.959 16.645 461.875 117.96 367.25 219.981C 272.624 322.002 192.423 316.845 137.97 315.193C 83.5172 313.541 8.20489 316.454 1.21352 352.609C -5.77786 388.764 27.5098 448.322 27.5098 448.322Z"/>
        <path id="path6_fill" fill-rule="evenodd" d="M 19.7959 322.611C 19.7959 322.611 65.9121 364.374 67.8346 430.703C 69.7571 497.032 97.2196 542.775 183.901 570.363C 270.583 597.951 489.305 629.842 620.529 592.51C 751.752 555.178 664.386 497.041 649.278 454.531C 634.17 412.022 565.903 234.178 634.17 177.193C 702.436 120.208 675.432 -10.6036 574.088 0.68701C 472.745 11.9776 332.364 84.8839 264.271 158.297C 196.179 231.711 138.467 228 99.2827 226.811C 60.0986 225.622 5.90421 227.719 0.873244 253.736C -4.15772 279.753 19.7959 322.611 19.7959 322.611Z"/>
        <path id="path7_stroke" d="M 19.7959 322.611L 19.3594 322.855L 19.3995 322.926L 19.4603 322.981L 19.7959 322.611ZM 19.7959 322.611C 19.4603 322.981 19.4603 322.981 19.4605 322.982C 19.4608 322.982 19.4612 322.982 19.4618 322.983C 19.463 322.984 19.465 322.986 19.4676 322.988C 19.4728 322.993 19.4808 323 19.4915 323.01C 19.5129 323.029 19.5452 323.059 19.5881 323.099C 19.6739 323.179 19.8019 323.298 19.9695 323.458C 20.3046 323.777 20.7977 324.255 21.4267 324.887C 22.6849 326.152 24.4867 328.035 26.6561 330.503C 30.9951 335.438 36.8029 342.71 42.6709 352.05C 54.4082 370.731 66.3768 397.667 67.3348 430.718L 68.3344 430.689C 67.3698 397.41 55.3192 370.301 43.5177 351.518C 37.6164 342.125 31.7749 334.811 27.4071 329.843C 25.2231 327.358 23.4071 325.46 22.1357 324.182C 21.5 323.543 21.0005 323.059 20.6591 322.734C 20.4884 322.571 20.3573 322.449 20.2684 322.366C 20.224 322.325 20.1901 322.294 20.1672 322.273C 20.1558 322.262 20.147 322.254 20.1411 322.249C 20.1381 322.246 20.1358 322.244 20.1342 322.242C 20.1334 322.242 20.1327 322.241 20.1323 322.241C 20.1319 322.24 20.1315 322.24 19.7959 322.611ZM 67.3348 430.718C 68.298 463.947 75.6609 492.081 93.6879 515.367C 111.712 538.649 140.351 557.027 183.75 570.839L 184.053 569.886C 140.77 556.111 112.337 537.823 94.4786 514.755C 76.6233 491.69 69.2938 463.788 68.3344 430.689L 67.3348 430.718ZM 183.75 570.839C 227.136 584.648 303.526 599.523 385.471 606.28C 467.409 613.036 554.967 611.682 620.665 592.991L 620.392 592.029C 554.867 610.67 467.452 612.036 385.553 605.283C 303.66 598.53 227.348 583.666 184.053 569.886L 183.75 570.839ZM 620.665 592.991C 653.498 583.65 672.757 572.984 682.88 561.51C 693.044 549.991 693.959 537.706 690.257 525.319C 686.567 512.974 678.282 500.492 670.025 488.491C 661.741 476.452 653.498 464.914 649.749 454.364L 648.807 454.699C 652.611 465.404 660.955 477.074 669.201 489.058C 677.473 501.08 685.661 513.436 689.299 525.606C 692.923 537.733 692.02 549.639 682.13 560.849C 672.2 572.103 653.171 582.704 620.392 592.029L 620.665 592.991ZM 649.749 454.364C 642.191 433.098 621.363 378.05 610.95 321.2C 605.743 292.775 603.147 263.928 606.102 238.647C 609.058 213.364 617.56 191.709 634.49 177.576L 633.849 176.809C 616.646 191.169 608.081 213.113 605.109 238.531C 602.137 263.952 604.751 292.908 609.966 321.38C 620.397 378.326 641.257 433.456 648.807 454.699L 649.749 454.364ZM 634.49 177.576C 668.794 148.941 679.146 101.779 668.214 63.2001C 662.746 43.9036 651.946 26.7286 636.127 15.0866C 620.301 3.44007 599.484 -2.64537 574.033 0.190085L 574.144 1.18394C 599.365 -1.62592 619.927 4.40604 635.534 15.892C 651.147 27.3823 661.834 44.3547 667.252 63.4728C 678.091 101.723 667.811 148.459 633.849 176.809L 634.49 177.576ZM 574.033 0.190085C 523.281 5.8443 462.79 26.9197 406.483 55.7511C 350.175 84.5827 298.003 121.195 263.905 157.957L 264.638 158.637C 298.632 121.987 350.697 85.4387 406.939 56.6412C 463.18 27.8434 523.552 6.82035 574.144 1.18394L 574.033 0.190085ZM 263.905 157.957C 229.913 194.606 198.538 211.978 170.797 220.05C 143.046 228.125 118.899 226.906 99.2979 226.312L 99.2675 227.311C 118.851 227.905 143.152 229.136 171.076 221.01C 199.011 212.882 230.538 195.403 264.638 158.637L 263.905 157.957ZM 99.2979 226.312C 79.6993 225.717 56.3091 225.942 37.1772 229.58C 27.6126 231.399 19.0771 234.077 12.6048 237.957C 6.12601 241.841 1.67537 246.954 0.382338 253.641L 1.36415 253.831C 2.5866 247.509 6.79687 242.604 13.119 238.815C 19.4476 235.021 27.853 232.372 37.364 230.563C 56.383 226.946 79.6821 226.717 99.2675 227.311L 99.2979 226.312ZM 0.382338 253.641C -0.892782 260.235 -0.327203 267.864 1.21722 275.572C 2.76272 283.285 5.29524 291.109 7.98115 298.109C 10.6676 305.109 13.5111 311.294 15.6827 315.728C 16.7687 317.945 17.687 319.725 18.3343 320.952C 18.6579 321.565 18.9137 322.04 19.0889 322.362C 19.1765 322.523 19.2439 322.646 19.2895 322.728C 19.3123 322.77 19.3297 322.801 19.3414 322.822C 19.3473 322.833 19.3517 322.841 19.3548 322.846C 19.3563 322.849 19.3574 322.851 19.3582 322.852C 19.3586 322.853 19.3589 322.854 19.3591 322.854C 19.3593 322.854 19.3594 322.855 19.7959 322.611C 20.2324 322.367 20.2323 322.367 20.2322 322.366C 20.232 322.366 20.2318 322.366 20.2314 322.365C 20.2308 322.364 20.2297 322.362 20.2283 322.36C 20.2255 322.355 20.2213 322.347 20.2157 322.337C 20.2044 322.316 20.1875 322.286 20.1652 322.245C 20.1204 322.164 20.054 322.043 19.9673 321.884C 19.7941 321.566 19.5402 321.094 19.2187 320.485C 18.5756 319.266 17.6619 317.495 16.5808 315.288C 14.4184 310.873 11.5879 304.716 8.91477 297.75C 6.24115 290.783 3.72857 283.015 2.19773 275.375C 0.665799 267.73 0.123787 260.245 1.36415 253.831L 0.382338 253.641Z"/>
    </defs>
</svg>
